<svg id="Layer_1" height="512" viewBox="0 0 512 512" width="512" xmlns="http://www.w3.org/2000/svg" xmlns:xlink="http://www.w3.org/1999/xlink" data-name="Layer 1"><linearGradient id="Blue_2" gradientUnits="userSpaceOnUse" x1="6" x2="506" y1="256" y2="256"><stop offset="0" stop-color="#2bc4f3"/><stop offset=".5" stop-color="#00aeee"/><stop offset="1" stop-color="#0095da"/></linearGradient><linearGradient id="linear-gradient" gradientUnits="userSpaceOnUse" x1="159.29" x2="443.204" y1="138.415" y2="422.329"><stop offset="0"/><stop offset="1" stop-opacity="0"/></linearGradient><circle cx="256" cy="256" fill="url(#Blue_2)" r="250"/><path d="m503.479 291.5-163.079-163.077h-171.119v56.844l52.046 52.045-8.953 14.718v13.9l56.9 56.9a29.378 29.378 0 0 1 -13.009 3.38l-29.234-29.234h-64.007c.727 25.052 9.779 46.185 25.029 61.3l137.815 137.816c93.044-27.031 163.688-106.671 177.611-204.592z" fill="url(#linear-gradient)" opacity=".49"/><path d="m290.348 220.007c35.753 8.97 58.628 37.913 58.628 76.535 0 50.716-39.3 87.035-94.021 87.035-53.591 0-90.432-34.981-91.931-86.6h64.009c.749 17.58 11.682 29.262 28.081 29.262 17.046 0 29-12.548 29-30.773s-12.388-29.536-31.795-29.536h-39.945v-13.9l40.608-66.763h-83.7v-56.844h171.118v11.457z" fill="#fff"/></svg>