<svg id="Capa_1" height="512" viewBox="0 0 72 76" width="512" xmlns="http://www.w3.org/2000/svg" data-name="Capa 1">
    <rect fill="#047857" height="72" rx="17.35" width="72" y="4"/>
    <rect fill="#064E3B" height="72" rx="17.35" width="72"/>
    <path d="m35.79 27.92v2.64h-15.37a2.64 2.64 0 0 0 -2.63 2.64v12.72a2.64 2.64 0 0 0 2.63 2.64h15.37v2.64a2.63 2.63 0 0 0 4.5 1.86l11.63-11.64a2.63 2.63 0 0 0 0-3.72l-11.63-11.64a2.64 2.64 0 0 0 -4.5 1.86z"
          fill="#047857"/>
    <path d="m37.3 24.8v2.64h-15.36a2.64 2.64 0 0 0 -2.64 2.64v12.72a2.64 2.64 0 0 0 2.64 2.64h15.36v2.64a2.64 2.64 0 0 0 4.5 1.86l11.64-11.64a2.63 2.63 0 0 0 0-3.72l-11.64-11.64a2.63 2.63 0 0 0 -4.5 1.86z"
          fill="#fff"/>
</svg>