<svg id="Layer_1" enable-background="new 0 0 64.019 64.019" height="512" viewBox="0 0 64.019 64.019" width="512" xmlns="http://www.w3.org/2000/svg" xmlns:xlink="http://www.w3.org/1999/xlink"><linearGradient id="SVGID_1_" gradientUnits="userSpaceOnUse" x1="17.091" x2="49.122" y1="35.929" y2="3.898"><stop offset="0" stop-color="#1a6fb0"/><stop offset="1" stop-color="#3d9ae2"/></linearGradient><linearGradient id="SVGID_2_" gradientUnits="userSpaceOnUse" x1="14.883" x2="46.914" y1="60.126" y2="28.096"><stop offset="0" stop-color="#00b6bd"/><stop offset="1" stop-color="#46f8ff"/></linearGradient><g><path d="m63.999 31.717c-.158-17.51-14.452-31.707-31.999-31.707-7.859 0-15.295 2.835-21.149 8.023l-3.437-3.437c-.573-.573-1.432-.744-2.18-.434-.747.31-1.234 1.039-1.234 1.848v16c0 1.105.895 2 2 2h16c.809 0 1.538-.487 1.848-1.235.309-.747.139-1.607-.434-2.179l-4.062-4.062c3.568-2.931 7.99-4.524 12.648-4.524 11.028 0 20 8.972 20 20 0 1.104.895 2 2 2h8c.008.001.016.001.019 0 1.106 0 2-.896 2-2 0-.1-.006-.198-.02-.293z" fill="url(#SVGID_1_)"/><path d="m58 40.01h-16c-.809 0-1.538.487-1.848 1.234-.309.748-.139 1.607.434 2.18l4.062 4.061c-3.569 2.931-7.991 4.525-12.648 4.525-11.028 0-20-8.972-20-20 0-1.105-.896-2-2-2h-8c-1.105 0-2 .896-2 2 0 17.645 14.355 32 32 32 7.859 0 15.295-2.835 21.149-8.022l3.437 3.437c.572.572 1.431.742 2.18.434.747-.311 1.234-1.041 1.234-1.849v-16c0-1.105-.896-2-2-2z" fill="url(#SVGID_2_)"/></g></svg>