<svg id="Capa_1" enable-background="new 0 0 512 512" height="512" viewBox="0 0 512 512" width="512" xmlns="http://www.w3.org/2000/svg"><g><path d="m398.306 147.059c-3.727 0-6.098-1.453-7.871-3.225-7.529-7.531-.171-20.821 7.079-31.558 5.18-7.671 11.327-15.08 18.268-22.021l36.835-36.835c6.948-6.948 14.36-13.096 22.03-18.273 10.734-7.247 24.02-14.6 31.547-7.072 4.998 4.998 7.463 14.768-18.058 46.216-7.027 8.652-15.497 17.981-24.497 26.98-9.001 9.002-18.33 17.472-26.976 24.494-20.303 16.477-31.573 21.294-38.357 21.294zm28.241-46.04c-6.256 6.256-11.779 12.91-16.416 19.777-2.395 3.546-4.041 6.343-5.17 8.509 4.673-2.452 11.904-7.077 22.106-15.357 8.246-6.696 17.17-14.802 25.808-23.44 8.636-8.635 16.743-17.56 23.443-25.811 8.276-10.198 12.899-17.426 15.349-22.098-2.164 1.129-4.958 2.773-8.501 5.164-6.865 4.635-13.521 10.159-19.783 16.42z" fill="#f4dd45"/><g><path d="m400.22 410.209h.199c17.083 0 30.925-13.854 30.925-30.925 0-17.083-13.842-30.937-30.925-30.937-.222 0-.445 0-.667.012h-283.18c-.222-.012-.445-.012-.667-.012-17.083 0-30.925 13.854-30.925 30.937 0 17.071 13.842 30.925 30.925 30.925h.199" fill="#f1b986"/><path d="m393.107 267.591c-89.963-8.722-179.926-8.722-269.889 0-6.981 55.936-9.037 111.871-6.169 167.807 2.088 40.718 34.671 73.128 75.397 75.051 43.811 2.068 87.621 2.068 131.432 0 40.726-1.923 73.309-34.333 75.397-75.051 2.869-55.936.813-111.872-6.168-167.807z" fill="#f1d0a5"/><path d="m123.223 267.582c44.974-4.362 89.961-6.536 134.948-6.536-22.775 0-45.551 2.201-68.326 6.603-3.543 56.475-4.577 112.951-3.127 169.413.953 37.163 14.535 67.467 32.358 74.379-8.871-.242-17.756-.577-26.627-.993-40.719-1.919-73.305-34.331-75.399-75.05-2.859-55.939-.806-111.878 6.173-167.816z" fill="#f1b986"/><path d="m258.162 446.387c-15.225 0-29.282-8.89-35.812-22.648-1.803-3.798-.185-8.337 3.612-10.14 3.796-1.801 8.337-.185 10.14 3.613 4.023 8.475 12.682 13.952 22.059 13.952 9.379 0 18.038-5.476 22.06-13.952 1.803-3.798 6.345-5.414 10.14-3.613 3.798 1.803 5.415 6.342 3.612 10.14-6.528 13.758-20.586 22.648-35.811 22.648z" fill="#da4a54"/><g fill="#454045"><path d="m192.313 349.298c-7.076 0-12.832 8.579-12.832 19.123 0 10.545 5.756 19.123 12.832 19.123s12.833-8.579 12.833-19.123c.001-10.545-5.756-19.123-12.833-19.123z"/><path d="m324.011 349.298c-7.076 0-12.832 8.579-12.832 19.123 0 10.545 5.756 19.123 12.832 19.123s12.833-8.579 12.833-19.123c0-10.545-5.757-19.123-12.833-19.123z"/></g><path d="m333.093 314.105c-51.709 19.975-125.16 11.167-162.177-25.85 0 0-8.79 60.102-54.333 60.102l-19.86 6.679c-53.043-208.206 60.093-152.574 60.093-152.574 10.681-20.7 26.239-29.269 42.495-31.336 1.431-.177 2.862-.309 4.302-.398.115 0 .23-.009.345-.018 11.45-.61 23.041 1.714 33.342 5.027 3.587 1.157 7.024 2.43 10.239 3.746 12.943 5.292 22.369 11.238 24.348 12.51.256.177.389.265.389.265 11.644-15.408 22.749-29.349 34.959-29.349 5.009 0 8.472 1.917 10.796 4.983 8.808 11.547 1.573 39.314.989 41.496l-.027.097c.009-.018.018-.053.035-.097l.062-.159c1.564-3.94 19.056-46.32 50.428-46.32 1.979 0 3.755.185 5.336.539 23.385 5.168 5.08 46.073 3.066 50.402l-.053.124c-.053.106-.088.186-.106.221.998-1.272 40.162-50.993 57.566-28.182.009.018.009.018.018.027 17.554 23.136-50.569 108.099-102.252 128.065z" fill="#f4dd45"/><g fill="#ecc32e"><path d="m435.327 186.012h-.009c-8.799-8.79-39.279 32.706-57.584 28.209l.133-.247c-.053.106-.088.186-.106.221.998-1.273 40.162-50.994 57.566-28.183z"/><path d="m374.854 163.448c-13.219-3.002-25.472 22.159-32.396 40.021-3.348 8.638-13.718 12.104-21.592 7.223l-1.891-1.172.018-.035.027-.097h.009l.062-.159c1.564-3.94 19.056-46.32 50.428-46.32 1.978 0 3.754.186 5.335.539z"/><path d="m199.308 171.125c-37.83 6.67-52.124 93.4-28.394 117.129 0 0-8.79 60.102-54.333 60.102l-19.86 6.679c-53.043-208.205 60.093-152.574 60.093-152.574 10.68-20.699 26.238-29.268 42.494-31.336z"/><path d="m318.03 167.892c-13.296-13.296-22.157 54.889-52.089 65.809s-32.732-3.039-32.732-3.039v-.009c14.736-5.451 27.175-22.678 39.058-38.404.009.009.009.009.009.009.362-.486.724-.963 1.087-1.44.451-.61.919-1.219 1.378-1.82 10.761-14.056 21.15-26.089 32.494-26.089 5.008 0 8.472 1.917 10.795 4.983z"/></g></g><path d="m105.094 123.015c-.052 0-.102 0-.154-.001-3.385-.068-6.317-2.363-7.197-5.631l-14.355-53.32h-19.955c-4.204 0-7.611-3.408-7.611-7.611s3.407-7.611 7.611-7.611h25.789c3.442 0 6.455 2.309 7.35 5.633l9.069 33.688 25.911-82.822c.994-3.176 3.937-5.339 7.265-5.339h51.066c4.204 0 7.611 3.408 7.611 7.611s-3.407 7.611-7.611 7.611h-45.473l-32.053 102.452c-.996 3.183-3.942 5.34-7.263 5.34z" fill="#454045"/><g><path d="m165.935 137.801c-15.381 0-16.508-.376-17.539-.72-2.539-.846-4.436-2.764-5.205-5.263-1.327-4.314.543-6.763 5.541-13.307 4.092-5.357 11.708-15.329 24.467-33.56 3.802-5.433 6.254-10.3 7.29-14.473l.277-2.168c-.228-6.954-5.956-12.541-12.965-12.541-6.185 0-11.539 4.395-12.728 10.449-.811 4.125-4.808 6.812-8.937 6.001-4.125-.81-6.812-4.811-6.001-8.936 2.589-13.175 14.224-22.738 27.666-22.738 15.547 0 28.195 12.648 28.195 28.195 0 .323-.021.646-.061.967l-.398 3.111c-.033.253-.077.504-.135.752-1.427 6.156-4.702 12.922-9.731 20.108-9.614 13.738-16.359 22.863-20.896 28.88 7.652-.005 17.591-.067 26.925-.184h.097c4.159 0 7.557 3.345 7.608 7.516.054 4.203-3.311 7.654-7.514 7.707-11.491.144-19.847.204-25.956.204z" fill="#665e66"/></g><circle cx="448.314" cy="85.948" fill="#80b4fb" r="37.681"/><path d="m481.899 103.056c-1.744 3.437-4.062 6.659-6.939 9.537-14.718 14.718-38.579 14.711-53.29 0-14.718-14.718-14.718-38.572 0-53.29 2.878-2.878 6.1-5.196 9.537-6.939-7.219 14.151-4.901 31.912 6.939 43.753s29.602 14.158 43.753 6.939z" fill="#5490f9"/><path d="m304.368 96.794-31.324-83.002c-.026-.07-.053-.139-.082-.209-1.474-3.584-4.929-5.897-8.803-5.897-.004 0-.009 0-.012 0-3.879.005-7.333 2.328-8.801 5.919-.023.056-.045.113-.066.169l-31.611 82.999c-1.497 3.928.476 8.326 4.403 9.822 3.928 1.495 8.326-.475 9.823-4.404l6.006-15.769h40.283l5.943 15.747c1.15 3.048 4.047 4.926 7.122 4.926.893 0 1.802-.158 2.687-.492 3.931-1.484 5.916-5.876 4.432-9.809zm-54.67-25.595 14.436-37.903 14.304 37.903z" fill="#6ec17d"/><path d="m38.754 29.031 3.664-3.664c2.972-2.972 2.972-7.792 0-10.764-2.973-2.973-7.792-2.973-10.765 0l-3.664 3.664-3.664-3.664c-2.973-2.972-7.792-2.973-10.765 0-2.972 2.972-2.972 7.792 0 10.764l3.664 3.664-3.664 3.664c-2.972 2.972-2.972 7.792 0 10.764 1.487 1.486 3.435 2.229 5.383 2.229s3.896-.743 5.383-2.229l3.664-3.664 3.664 3.664c1.487 1.486 3.434 2.229 5.383 2.229 1.947 0 3.896-.743 5.383-2.229 2.972-2.972 2.972-7.792 0-10.764z" fill="#da4a54"/><path d="m502.812 162.909 3.664-3.664c2.973-2.972 2.973-7.792.001-10.764s-7.792-2.973-10.764 0l-3.665 3.665-3.665-3.665c-2.971-2.972-7.791-2.972-10.764 0-2.972 2.973-2.972 7.792.001 10.764l3.664 3.664-3.664 3.664c-2.973 2.972-2.973 7.792-.001 10.764 1.487 1.486 3.434 2.229 5.383 2.229 1.947 0 3.896-.743 5.382-2.229l3.665-3.665 3.665 3.665c1.486 1.486 3.434 2.229 5.382 2.229 1.947 0 3.896-.743 5.383-2.229 2.972-2.973 2.972-7.792-.001-10.764z" fill="#f4dd45"/><path d="m347.707 123.629 3.664-3.664c2.973-2.972 2.973-7.792.001-10.764-2.973-2.972-7.793-2.973-10.764 0l-3.665 3.665-3.665-3.665c-2.971-2.972-7.791-2.972-10.764 0-2.972 2.972-2.972 7.792.001 10.764l3.664 3.664-3.664 3.664c-2.973 2.972-2.973 7.792-.001 10.764 1.487 1.486 3.434 2.229 5.383 2.229 1.947 0 3.896-.743 5.382-2.229l3.665-3.665 3.665 3.665c1.486 1.486 3.434 2.229 5.382 2.229 1.947 0 3.896-.743 5.383-2.229 2.972-2.972 2.972-7.792-.001-10.764z" fill="#da4a54"/><path d="m62.034 312.278h-14.673v-14.674c0-4.204-3.407-7.611-7.611-7.611s-7.611 3.408-7.611 7.611v14.674h-14.675c-4.204 0-7.611 3.408-7.611 7.611 0 4.204 3.407 7.611 7.611 7.611h14.674v14.674c0 4.204 3.407 7.611 7.611 7.611s7.611-3.408 7.611-7.611v-14.674h14.673c4.204 0 7.611-3.408 7.611-7.611.002-4.204-3.406-7.611-7.61-7.611z" fill="#da4a54"/><g><circle cx="52.039" cy="159.69" fill="#f6f1f1" r="43.27"/><path d="m52.039 210.572c-28.056 0-50.882-22.826-50.882-50.882s22.826-50.881 50.882-50.881c28.055 0 50.881 22.825 50.881 50.881s-22.825 50.882-50.881 50.882zm0-86.54c-19.662 0-35.659 15.996-35.659 35.658s15.997 35.659 35.659 35.659 35.658-15.996 35.658-35.659-15.996-35.658-35.658-35.658z" fill="#80b4fb"/><path d="m63.433 167.301h-11.394c-4.204 0-7.611-3.408-7.611-7.611v-21.769c0-4.204 3.407-7.611 7.611-7.611s7.611 3.408 7.611 7.611v14.158h3.782c4.204 0 7.611 3.408 7.611 7.611.001 4.204-3.406 7.611-7.61 7.611z" fill="#454045"/></g><path d="m364.777 88.509c-1.106 0-2.23-.242-3.293-.753-3.788-1.821-5.383-6.369-3.562-10.158l12.371-25.732h-15.797c-2.617 0-5.051-1.344-6.443-3.56-1.393-2.216-1.551-4.991-.417-7.35l17.614-36.641c1.822-3.789 6.373-5.383 10.159-3.562 3.788 1.822 5.383 6.369 3.562 10.158l-12.371 25.732h15.797c2.617 0 5.051 1.344 6.443 3.56 1.393 2.216 1.551 4.991.417 7.35l-17.615 36.641c-1.31 2.724-4.032 4.315-6.865 4.315z" fill="#f4dd45"/><path d="m499.2 254.776c3.088-4.14 4.918-9.271 4.918-14.821 0-13.698-11.144-24.841-24.84-24.841h-21.751c-4.204 0-7.611 3.408-7.611 7.611v34.48.056 40.344c0 2.025.807 3.966 2.241 5.394 1.427 1.42 3.358 2.217 5.371 2.217h.034s20.002-.089 25.515-.089c15.311 0 27.767-12.456 27.767-27.767-.001-9.301-4.603-17.543-11.644-22.584zm-19.922-24.44c5.303 0 9.617 4.315 9.617 9.618s-4.314 9.618-9.617 9.618c-1.606 0-4.636.009-7.935.02h-6.204v-19.257h14.139zm3.798 59.567c-3.276 0-11.655.031-17.938.057v-25.12c2.002-.008 4.181-.016 6.255-.024h11.683c6.917 0 12.544 5.627 12.544 12.544 0 6.916-5.628 12.543-12.544 12.543z" fill="#da4a54"/><path d="m482.671 56.506c-1.833 2.485-3.933 5.207-6.355 8.191-6.7 8.25-14.807 17.175-23.443 25.811-8.637 8.638-17.562 16.744-25.808 23.44-2.476 2.009-4.773 3.8-6.905 5.4l12.525 9.586c1.286-1.006 2.609-2.058 3.975-3.167 8.646-7.023 17.975-15.493 26.976-24.494 9-8.999 17.471-18.328 24.497-26.98 1.975-2.434 3.764-4.723 5.416-6.906z" fill="#f4dd45"/></g></svg>